<svg width="20" height="20" viewBox="0 0 20 20" fill="none" xmlns="http://www.w3.org/2000/svg">
<path fill-rule="evenodd" clip-rule="evenodd" d="M4.77744 1.7021C5.79161 0.693763 7.46161 0.87293 8.31077 2.00793L9.36244 3.41126C10.0541 4.3346 9.99244 5.6246 9.17161 6.44043L8.97327 6.63876C8.95088 6.72203 8.9486 6.80944 8.96661 6.89376C9.01911 7.23376 9.30327 7.95376 10.4933 9.1371C11.6833 10.3204 12.4083 10.6038 12.7533 10.6571C12.8401 10.6756 12.9301 10.673 13.0158 10.6496L13.3558 10.3113C14.0858 9.58626 15.2058 9.45043 16.1091 9.94126L17.7008 10.8079C19.0649 11.5479 19.4091 13.4013 18.2924 14.5121L17.1083 15.6888C16.7349 16.0596 16.2333 16.3688 15.6216 16.4263C14.1133 16.5671 10.5991 16.3871 6.90494 12.7146C3.45744 9.28626 2.79577 6.29626 2.71161 4.82293C2.66994 4.07793 3.02161 3.44793 3.46994 3.00293L4.77744 1.7021ZM7.31077 2.7571C6.88827 2.19293 6.10161 2.14793 5.65827 2.58876L4.34994 3.88876C4.07494 4.1621 3.94327 4.46376 3.95994 4.7521C4.02661 5.92293 4.55994 8.62043 7.78661 11.8288C11.1716 15.1938 14.2974 15.2946 15.5058 15.1813C15.7524 15.1588 15.9974 15.0304 16.2266 14.8029L17.4099 13.6254C17.8916 13.1471 17.7858 12.2754 17.1041 11.9054L15.5124 11.0396C15.0724 10.8013 14.5574 10.8796 14.2374 11.1979L13.8583 11.5754L13.4166 11.1321C13.8583 11.5754 13.8574 11.5763 13.8566 11.5763L13.8558 11.5779L13.8533 11.5804L13.8474 11.5854L13.8349 11.5971C13.7995 11.6294 13.7616 11.659 13.7216 11.6854C13.6549 11.7296 13.5666 11.7788 13.4558 11.8196C13.2308 11.9038 12.9324 11.9488 12.5641 11.8921C11.8416 11.7813 10.8841 11.2888 9.61161 10.0238C8.33994 8.75876 7.84327 7.8071 7.73161 7.08543C7.67411 6.7171 7.71994 6.41876 7.80494 6.19376C7.85208 6.06732 7.91902 5.94918 8.00327 5.84376L8.02994 5.8146L8.04161 5.8021L8.04661 5.7971L8.04911 5.7946L8.05078 5.79293L8.29078 5.5546C8.64744 5.19876 8.69744 4.6096 8.36161 4.16043L7.31077 2.7571Z" fill="white" fill-opacity="0.8"/>
</svg>
