<svg width="25" height="25" viewBox="0 0 25 25" fill="none" xmlns="http://www.w3.org/2000/svg">
<path d="M12.5 25C19.4036 25 25 19.4036 25 12.5C25 5.59644 19.4036 0 12.5 0C5.59644 0 0 5.59644 0 12.5C0 19.4036 5.59644 25 12.5 25Z" fill="white" fill-opacity="0.8"/>
<path d="M9.72847 8.22722C9.72847 8.64693 9.72847 10.5186 9.72847 10.5186H8V13.3205H9.72847V21H13.2788V13.3148H15.6613C15.6613 13.3148 15.8832 11.9706 15.9942 10.5016C15.6847 10.5016 13.2964 10.5016 13.2964 10.5016C13.2964 10.5016 13.2964 8.8738 13.2964 8.58455C13.2964 8.30096 13.6818 7.91528 14.0672 7.91528C14.4467 7.91528 15.2526 7.91528 16 7.91528C16 7.53527 16 6.21375 16 5C15.0015 5 13.8686 5 13.3723 5C9.64088 5.00567 9.72847 7.80752 9.72847 8.22722Z" fill="#141F39"/>
</svg>
