<?xml version="1.0" encoding="UTF-8"?>
<svg xmlns="http://www.w3.org/2000/svg" width="22" height="24" viewBox="0 0 22 24" fill="none">
  <path d="M18.4706 4.6815C18.453 4.57537 18.3664 4.494 18.2591 4.48387C18.1747 4.47 16.3204 4.34287 16.3204 4.34287L14.9066 2.92912C14.7791 2.78812 14.4971 2.82937 14.3906 2.85862C14.3767 2.85862 14.1086 2.943 13.6699 3.0855C13.2435 1.85175 12.4886 0.72075 11.1589 0.72075H11.0452C10.6642 0.226875 10.1977 0 9.804 0C6.708 0.013875 5.23275 3.87487 4.76625 5.84775L2.6025 6.5115C1.93875 6.723 1.91437 6.73837 1.82512 7.37137L0 21.4406L13.6755 24L21.0866 22.4025C21.0866 22.3886 18.4841 4.81575 18.4706 4.6815ZM12.9116 3.3225C12.5677 3.43612 12.1755 3.54937 11.7529 3.67687V3.42187C11.7654 2.78556 11.67 2.15172 11.4709 1.54725C12.1639 1.65375 12.6292 2.4315 12.9116 3.3225ZM10.6361 1.71075C10.8622 2.3775 10.9672 3.0795 10.9459 3.78337V3.91087L8.55525 4.647C9.02325 2.8995 9.88612 2.03625 10.6361 1.71075ZM9.71737 0.850875C9.8588 0.853884 9.99629 0.898062 10.113 0.978C9.1155 1.44225 8.061 2.61525 7.60875 4.96312L5.71687 5.54287C6.2505 3.76125 7.4955 0.8475 9.71625 0.8475L9.71737 0.850875Z" fill="#95BF47"></path>
  <path d="M18.2591 4.48387C18.1747 4.47 16.3204 4.34287 16.3204 4.34287L14.9066 2.92912C14.8541 2.87587 14.7829 2.8455 14.709 2.84475L13.677 24L21.0881 22.4025L18.4706 4.69575C18.4621 4.64271 18.4371 4.59371 18.3991 4.55573C18.3612 4.51775 18.3122 4.49236 18.2591 4.48387Z" fill="#5E8E3E"></path>
  <path d="M11.1593 8.58375L10.239 11.2995C9.68288 11.0302 9.075 10.8855 8.457 10.8746C7.014 10.8746 6.9435 11.7791 6.9435 12.0064C6.9435 13.2431 10.182 13.7179 10.182 16.6312C10.182 18.9225 8.72513 20.3925 6.7695 20.3925C4.422 20.3925 3.21937 18.9356 3.21937 18.9356L3.84375 16.8544C3.84375 16.8544 5.07375 17.9156 6.12113 17.9156C6.24633 17.9204 6.3712 17.8997 6.48818 17.8548C6.60517 17.81 6.71182 17.7418 6.80171 17.6545C6.89159 17.5672 6.96284 17.4626 7.01112 17.347C7.05941 17.2314 7.08373 17.1072 7.08262 16.9819C7.08262 15.3544 4.42387 15.2842 4.42387 12.6251C4.42387 10.3894 6.03563 8.21138 9.27413 8.21138C10.5469 8.23013 11.1559 8.58263 11.1559 8.58263L11.1593 8.58375Z" fill="white"></path>
</svg>
