<svg width="24" height="22" viewBox="0 0 24 22" fill="none" xmlns="http://www.w3.org/2000/svg">
<g clip-path="url(#clip0_7773_1097)">
<path d="M3 13H21M3 13C1.89543 13 1 12.1046 1 11V10C1 8.89543 1.89543 8 3 8H21C22.1046 8 23 8.89543 23 10V11C23 12.1046 22.1046 13 21 13M3 13V19C3 20.1046 3.89543 21 5 21H19C20.1046 21 21 20.1046 21 19V13M12 8V20M11.3817 3.26851C11.9147 4.225 12.0305 5.37983 11.9938 6.3706C11.9465 7.64677 10.7097 8.38648 9.61924 7.79085C8.77264 7.32842 7.86514 6.64715 7.33208 5.69066C6.66627 4.49596 7.03306 2.98524 8.15133 2.31639C9.2696 1.64753 10.7159 2.07381 11.3817 3.26851ZM12.6183 3.26851C12.0853 4.225 11.9695 5.37983 12.0062 6.3706C12.0535 7.64677 13.2903 8.38648 14.3808 7.79085C15.2274 7.32842 16.1349 6.64715 16.6679 5.69066C17.3337 4.49596 16.9669 2.98524 15.8487 2.31639C14.7304 1.64753 13.2841 2.07381 12.6183 3.26851Z" stroke="#EB591E" stroke-width="2" stroke-linecap="round"/>
</g>
<defs>
<clipPath id="clip0_7773_1097">
<rect width="24" height="22" fill="white"/>
</clipPath>
</defs>
</svg>
