<svg width="25" height="25" viewBox="0 0 25 25" fill="none" xmlns="http://www.w3.org/2000/svg">
<g clip-path="url(#clip0_7773_1086)">
<path d="M13.9999 13C15.6567 13 16.9999 11.6569 16.9999 10C16.9999 8.34315 15.6567 7 13.9999 7C12.343 7 10.9999 8.34315 10.9999 10C10.9999 11.6569 12.343 13 13.9999 13ZM13.9999 13C10.595 13 7.7431 15.1343 6.99993 18M13.9999 13C17.4048 13 20.2567 15.1343 20.9999 18M5.6666 17L2.1666 20.5C1.52227 21.1443 1.52227 22.189 2.1666 22.8333C2.81093 23.4777 3.8556 23.4777 4.49993 22.8333L7.99993 19.3333M23.9999 11C23.9999 16.5228 19.5227 21 13.9999 21C8.47709 21 3.99993 16.5228 3.99993 11C3.99993 5.47715 8.47709 1 13.9999 1C19.5227 1 23.9999 5.47715 23.9999 11Z" stroke="#EB591E" stroke-width="2" stroke-linecap="round" stroke-linejoin="round"/>
</g>
<defs>
<clipPath id="clip0_7773_1086">
<rect width="25" height="25" fill="white"/>
</clipPath>
</defs>
</svg>
