<?xml version="1.0" encoding="UTF-8"?>
<svg xmlns="http://www.w3.org/2000/svg" width="26" height="16" viewBox="0 0 26 16" fill="none">
  <path d="M2.413 0H23.5764C24.9158 0 26 1.08418 26 2.42359V10.502C26 11.8414 24.9158 12.9256 23.5764 12.9256H15.9869L17.0287 15.4766L12.4473 12.9256H2.42356C1.08426 12.9256 7.80076e-05 11.8414 7.80076e-05 10.502V2.42359C-0.0105861 1.09484 1.07349 0 2.413 0Z" fill="#9B5C8F"></path>
  <path d="M1.48069 2.20887C1.62866 2.00798 1.85058 1.90235 2.14653 1.88123C2.68562 1.83887 2.99214 2.09248 3.06608 2.64213C3.39372 4.85112 3.75305 6.7219 4.1335 8.25438L6.44811 3.84707C6.65956 3.44539 6.92383 3.23404 7.24091 3.21291C7.70596 3.18123 7.99125 3.47708 8.10754 4.10067C8.37181 5.5063 8.71001 6.70068 9.11159 7.71529C9.38642 5.03078 9.85147 3.09662 10.5068 1.90235C10.6652 1.6064 10.8978 1.45842 11.2043 1.43719C11.4474 1.41617 11.6693 1.49011 11.8701 1.64865C12.0709 1.80719 12.1766 2.00798 12.1978 2.25112C12.2083 2.44134 12.1766 2.59988 12.0921 2.75842C11.6799 3.51943 11.3416 4.79831 11.0669 6.57382C10.8027 8.29663 10.7075 9.63898 10.7709 10.6008C10.7921 10.8648 10.7498 11.0974 10.6442 11.2983C10.5172 11.5308 10.3271 11.6576 10.084 11.6788C9.80912 11.6999 9.52383 11.5731 9.249 11.2877C8.26608 10.2836 7.48395 8.78281 6.91327 6.78528C6.2262 8.13809 5.71889 9.1527 5.39125 9.82911C4.76766 11.0235 4.23923 11.6365 3.7953 11.6682C3.50991 11.6893 3.26687 11.4462 3.05551 10.939C2.51652 9.55438 1.93518 6.88034 1.31169 2.91696C1.26933 2.64213 1.33271 2.39899 1.48069 2.20887ZM24.1937 3.8682C23.8133 3.20235 23.2531 2.80077 22.5027 2.64213C22.3018 2.59988 22.1117 2.57876 21.9319 2.57876C20.9173 2.57876 20.0929 3.10719 19.4482 4.16415C18.8986 5.06247 18.6238 6.05596 18.6238 7.1446C18.6238 7.95843 18.7929 8.65596 19.1311 9.2373C19.5116 9.90315 20.0718 10.3047 20.8222 10.4633C21.0229 10.5056 21.2132 10.5267 21.3929 10.5267C22.4181 10.5267 23.2425 9.99831 23.8767 8.94135C24.4262 8.03236 24.701 7.03888 24.701 5.95033C24.7116 5.12595 24.5319 4.43888 24.1937 3.8682ZM22.862 6.79584C22.7141 7.49337 22.4498 8.01124 22.0587 8.36C21.7523 8.63483 21.4669 8.75102 21.2027 8.69821C20.949 8.64539 20.7376 8.42348 20.5791 8.01124C20.4522 7.6836 20.3889 7.35596 20.3889 7.04944C20.3889 6.78528 20.41 6.52101 20.4628 6.27797C20.558 5.8446 20.7377 5.4218 21.0229 5.02022C21.3718 4.50225 21.7417 4.291 22.1222 4.36494C22.3759 4.41775 22.5873 4.63977 22.7458 5.05191C22.8726 5.37955 22.936 5.70719 22.936 6.01371C22.936 6.28853 22.9149 6.5528 22.862 6.79584ZM17.5774 3.8682C17.197 3.20235 16.6262 2.80077 15.8864 2.64213C15.6856 2.59988 15.4954 2.57876 15.3156 2.57876C14.301 2.57876 13.4766 3.10719 12.8319 4.16415C12.2824 5.06247 12.0075 6.05596 12.0075 7.1446C12.0075 7.95843 12.1766 8.65596 12.5148 9.2373C12.8953 9.90315 13.4555 10.3047 14.2059 10.4633C14.4068 10.5056 14.5969 10.5267 14.7766 10.5267C15.8018 10.5267 16.6262 9.99831 17.2604 8.94135C17.81 8.03236 18.0847 7.03888 18.0847 5.95033C18.0847 5.12595 17.9156 4.43888 17.5774 3.8682ZM16.2352 6.79584C16.0872 7.49337 15.8229 8.01124 15.4319 8.36C15.1254 8.63483 14.84 8.75102 14.5758 8.69821C14.3222 8.64539 14.1108 8.42348 13.9522 8.01124C13.8254 7.6836 13.762 7.35596 13.762 7.04944C13.762 6.78528 13.7832 6.52101 13.836 6.27797C13.9311 5.8446 14.1108 5.4218 14.3962 5.02022C14.745 4.50225 15.1149 4.291 15.4953 4.36494C15.749 4.41775 15.9605 4.63977 16.1189 5.05191C16.2459 5.37955 16.3091 5.70719 16.3091 6.01371C16.3198 6.28853 16.288 6.5528 16.2352 6.79584Z" fill="white"></path>
</svg>
