<svg width="28" height="28" viewBox="0 0 28 28" fill="none" xmlns="http://www.w3.org/2000/svg">
<g clip-path="url(#clip0_7773_1112)">
<path d="M14.161 5.29422C14.5536 5.13737 14.9814 5.09012 15.3988 5.15752C15.8161 5.22492 16.2073 5.40443 16.5305 5.67689L16.6775 5.81105L22.1889 11.3224C22.4882 11.6214 22.7006 11.9961 22.8033 12.4065C22.9061 12.8169 22.8953 13.2475 22.7722 13.6522L22.7057 13.8389L19.9465 20.7374C19.7918 21.1236 19.5366 21.4615 19.2074 21.7158C18.8781 21.9702 18.4868 22.1319 18.074 22.1841L12.1485 22.9249C11.9969 22.9424 11.8359 22.9646 11.6702 22.9902L11.1522 23.0742L10.8815 23.1232L10.038 23.2866L9.46053 23.4102L8.59136 23.6051L7.47719 23.8711L5.66653 24.3331L4.91286 24.5361C4.72266 24.5884 4.52238 24.5921 4.33038 24.5469C4.13837 24.5016 3.96079 24.409 3.81391 24.2773C3.66704 24.1456 3.55556 23.9792 3.48971 23.7932C3.42387 23.6073 3.40575 23.4078 3.43703 23.2131L3.47669 23.0427L3.82086 21.7454L4.12886 20.5227L4.39486 19.4086L4.58969 18.5394L4.71219 17.9607L4.87669 17.1184L4.97003 16.5852L5.04469 16.0859L5.81469 9.92589C5.86309 9.5457 6.00445 9.18329 6.22625 8.87073C6.44805 8.55817 6.74347 8.3051 7.08636 8.13389L7.26253 8.05339L14.161 5.29422ZM15.0267 7.46072L8.12936 10.2199L7.44803 15.6706L7.39203 16.1326C7.27766 16.9908 7.12781 17.844 6.94286 18.6899L6.74336 19.6069L10.5794 15.7709C10.4464 15.2747 10.4808 14.7486 10.6774 14.274C10.8739 13.7994 11.2215 13.403 11.6664 13.1461C12.1112 12.8893 12.6284 12.7864 13.1376 12.8534C13.6469 12.9204 14.1198 13.1536 14.483 13.5169C14.8463 13.8801 15.0795 14.353 15.1465 14.8623C15.2135 15.3715 15.1107 15.8887 14.8538 16.3335C14.597 16.7784 14.2005 17.126 13.7259 17.3226C13.2513 17.5191 12.7252 17.5535 12.229 17.4206L8.39303 21.2566L8.85036 21.1551L9.76503 20.9626C10.335 20.8459 10.908 20.7447 11.4835 20.6592L17.78 19.8706L20.5392 12.9732L15.0267 7.46072ZM17.7835 3.61772C17.9843 3.41667 18.2515 3.29579 18.535 3.27775C18.8185 3.2597 19.0989 3.34574 19.3235 3.51972L19.4332 3.61772L24.3822 8.56672C24.5937 8.77618 24.7171 9.05855 24.7272 9.35603C24.7372 9.6535 24.6333 9.94358 24.4365 10.1669C24.2397 10.3902 23.965 10.5299 23.6686 10.5573C23.3723 10.5847 23.0766 10.4978 22.8422 10.3144L22.7325 10.2164L17.7835 5.26739C17.5648 5.0486 17.4419 4.75191 17.4419 4.44255C17.4419 4.13319 17.5648 3.8365 17.7835 3.61772Z" fill="#EB591E"/>
</g>
<defs>
<clipPath id="clip0_7773_1112">
<rect width="28" height="28" fill="white"/>
</clipPath>
</defs>
</svg>
