<svg width="25" height="25" viewBox="0 0 25 25" fill="none" xmlns="http://www.w3.org/2000/svg">
<path d="M9.65381 6.7688L16.1817 3L18.3629 6.77826L9.65381 6.7688Z" stroke="#EB591E" stroke-width="2" stroke-linecap="round" stroke-linejoin="round"/>
<path d="M3.04126 7.72907C3.04126 7.47821 3.14091 7.23763 3.3183 7.06024C3.49568 6.88286 3.73627 6.7832 3.98713 6.7832H21.0127C21.2636 6.7832 21.5042 6.88286 21.6815 7.06024C21.8589 7.23763 21.9586 7.47821 21.9586 7.72907V20.9712C21.9586 21.2221 21.8589 21.4626 21.6815 21.64C21.5042 21.8174 21.2636 21.9171 21.0127 21.9171H3.98713C3.73627 21.9171 3.49568 21.8174 3.3183 21.64C3.14091 21.4626 3.04126 21.2221 3.04126 20.9712V7.72907Z" stroke="#EB591E" stroke-width="2" stroke-linejoin="round"/>
<path d="M17.8205 16.7157H21.9587V11.9863H17.8205C16.449 11.9863 15.3376 13.0452 15.3376 14.351C15.3376 15.6568 16.449 16.7157 17.8205 16.7157Z" stroke="#EB591E" stroke-width="2" stroke-linejoin="round"/>
<path d="M21.9585 8.91016V20.2605" stroke="#EB591E" stroke-width="2" stroke-linecap="round"/>
</svg>
