<svg width="24" height="24" viewBox="0 0 24 24" fill="none" xmlns="http://www.w3.org/2000/svg">
<path d="M18.1558 21.684C18.0569 21.7842 17.9394 21.8636 17.8101 21.9179C17.6808 21.9721 17.5422 22 17.4022 22C17.2622 22 17.1236 21.9721 16.9943 21.9179C16.865 21.8636 16.7475 21.7842 16.6486 21.684L14.3826 19.3931C14.2836 19.293 14.2051 19.1742 14.1515 19.0435C14.098 18.9128 14.0704 18.7727 14.0704 18.6312C14.0704 18.4897 14.098 18.3496 14.1515 18.2189C14.2051 18.0882 14.2836 17.9694 14.3826 17.8694C14.5824 17.6673 14.8535 17.5538 15.1361 17.5538C15.2761 17.5538 15.4147 17.5817 15.544 17.6358C15.6733 17.69 15.7907 17.7693 15.8897 17.8694L17.3968 19.3931L21.1807 15.5677C21.2797 15.4676 21.3972 15.3882 21.5265 15.3341C21.6558 15.28 21.7943 15.2521 21.9343 15.2521C22.0742 15.2521 22.2128 15.28 22.3421 15.3341C22.4714 15.3882 22.5889 15.4676 22.6879 15.5677C22.7868 15.6677 22.8653 15.7865 22.9189 15.9172C22.9724 16.0479 23 16.188 23 16.3295C23 16.471 22.9724 16.6111 22.9189 16.7418C22.8653 16.8725 22.7868 16.9913 22.6879 17.0913L18.1558 21.684ZM11.7745 20.29H3.13779C1.962 20.29 1 19.3174 1 18.1287V5.16125C1 3.97256 1.962 3 3.13779 3H20.2401C21.4159 3 22.3779 3.97256 22.3779 5.16125V12.3798C21.2379 11.8316 19.9792 11.584 18.7191 11.6603C17.459 11.7365 16.2385 12.1341 15.1713 12.8159C14.1042 13.4977 13.2252 14.4416 12.6163 15.5596C12.0074 16.6775 11.6883 17.9331 11.6889 19.2094C11.6889 19.5768 11.721 19.9334 11.7745 20.29ZM11.1224 12.369C11.4645 12.5851 11.9134 12.5851 12.2555 12.369L19.8125 7.59265C19.9197 7.53182 20.0136 7.44964 20.0884 7.35108C20.1633 7.25252 20.2176 7.13963 20.248 7.01924C20.2785 6.89885 20.2845 6.77347 20.2656 6.65068C20.2467 6.52789 20.2034 6.41025 20.1382 6.30487C20.0731 6.1995 19.9875 6.10858 19.8866 6.03763C19.7857 5.96667 19.6716 5.91716 19.5512 5.89207C19.4308 5.86699 19.3066 5.86686 19.1862 5.89169C19.0658 5.91653 18.9516 5.96581 18.8505 6.03655L11.6889 10.5644L4.52735 6.03655C4.4263 5.96581 4.3121 5.91653 4.19167 5.89169C4.07124 5.86686 3.94707 5.86699 3.82669 5.89207C3.7063 5.91716 3.59221 5.96667 3.4913 6.03763C3.39039 6.10858 3.30478 6.1995 3.23963 6.30487C3.17449 6.41025 3.13117 6.52789 3.1123 6.65068C3.09343 6.77347 3.0994 6.89885 3.12985 7.01924C3.1603 7.13963 3.2146 7.25252 3.28945 7.35108C3.36431 7.44964 3.45817 7.53182 3.56535 7.59265L11.1224 12.369Z" fill="#06B14B"/>
</svg>
