<svg width="28" height="24" viewBox="0 0 28 24" fill="none" xmlns="http://www.w3.org/2000/svg">
<path d="M25.5652 5.71429H21.7061L19.4783 3.42857H12.1739V5.71429H18.407L20.6348 8H25.5652V21.7143H6.08695V11.4286H3.65217V21.7143C3.65217 22.9714 4.74783 24 6.08695 24H25.5652C26.9044 24 28 22.9714 28 21.7143V8C28 6.74286 26.9044 5.71429 25.5652 5.71429ZM9.7391 14.8571C9.7391 18.0114 12.4661 20.5714 15.8261 20.5714C19.1861 20.5714 21.913 18.0114 21.913 14.8571C21.913 11.7029 19.1861 9.14286 15.8261 9.14286C12.4661 9.14286 9.7391 11.7029 9.7391 14.8571ZM15.8261 11.4286C17.8348 11.4286 19.4783 12.9714 19.4783 14.8571C19.4783 16.7429 17.8348 18.2857 15.8261 18.2857C13.8174 18.2857 12.1739 16.7429 12.1739 14.8571C12.1739 12.9714 13.8174 11.4286 15.8261 11.4286ZM6.08695 5.71429H9.7391V3.42857H6.08695V0H3.65217V3.42857H0V5.71429H3.65217V9.14286H6.08695V5.71429Z" fill="#EB591E"/>
</svg>
