<svg width="16" height="16" viewBox="0 0 16 16" fill="none" xmlns="http://www.w3.org/2000/svg">
<path d="M8.38889 1H2.16667C1.85725 1 1.5605 1.12292 1.34171 1.34171C1.12292 1.5605 1 1.85725 1 2.16667V10.7222C1 11.0316 1.12292 11.3284 1.34171 11.5472C1.5605 11.766 1.85725 11.8889 2.16667 11.8889H13.8333C14.1428 11.8889 14.4395 11.766 14.6583 11.5472C14.8771 11.3284 15 11.0316 15 10.7222V8M8 11.8889V15M4.11111 15H11.8889M13.0556 5.66667V1M13.0556 1L11.1111 2.94444M13.0556 1L15 2.94444" stroke="#EB591E" stroke-width="1.5" stroke-linecap="round" stroke-linejoin="round"/>
</svg>
