<svg width="19" height="19" viewBox="0 0 19 19" fill="none" xmlns="http://www.w3.org/2000/svg">
<path d="M3.44874 11.9649H1M18 11.9649H15.5513M3.44874 7.03512H1M18 7.03512H15.5513M7.03512 3.44874V1M7.03512 18V15.5513M11.9649 3.44874V1M11.9649 18V15.5513M14.2065 3.44874H4.79347C4.43682 3.44874 4.09479 3.59042 3.8426 3.8426C3.59042 4.09479 3.44874 4.43682 3.44874 4.79347V14.2065C3.44874 14.5632 3.59042 14.9052 3.8426 15.1574C4.09479 15.4096 4.43682 15.5513 4.79347 15.5513H14.2065C14.5632 15.5513 14.9052 15.4096 15.1574 15.1574C15.4096 14.9052 15.5513 14.5632 15.5513 14.2065V4.79347C15.5513 4.43682 15.4096 4.09479 15.1574 3.8426C14.9052 3.59042 14.5632 3.44874 14.2065 3.44874Z" stroke="#EB591E" stroke-width="1.5" stroke-linecap="round" stroke-linejoin="round"/>
<path d="M9.51529 10.1087C10.3737 10.1087 11.0696 9.41279 11.0696 8.55435C11.0696 7.69591 10.3737 7 9.51529 7C8.65684 7 7.96094 7.69591 7.96094 8.55435C7.96094 9.41279 8.65684 10.1087 9.51529 10.1087Z" stroke="#EB591E" stroke-width="1.3" stroke-linecap="round" stroke-linejoin="round"/>
<path d="M7 12.5007C7 11.305 7.95652 10.1094 9.51087 10.1094C11.0652 10.1094 12.0217 11.305 12.0217 12.5007" stroke="#EB591E" stroke-width="1.3" stroke-linecap="round" stroke-linejoin="round"/>
</svg>
