<svg width="14" height="16" viewBox="0 0 14 16" fill="none" xmlns="http://www.w3.org/2000/svg">
<path d="M7.00234 7.00415C8.09217 7.00415 8.98056 6.08853 8.98056 4.97406C8.98056 3.86825 8.10135 3 7.00234 3C5.91701 3 5.02413 3.88557 5.02413 4.98272C5.02862 6.09277 5.91701 7.00415 7.00234 7.00415ZM7.00234 6.3519C6.33376 6.3519 5.7613 5.74739 5.7613 4.98254C5.7613 4.23114 6.32457 3.65225 7.00234 3.65225C7.6891 3.65225 8.2432 4.22248 8.2432 4.97406C8.2432 5.73854 7.67992 6.3519 7.00234 6.3519ZM4.12656 11H9.87813C10.6382 11 11 10.7838 11 10.3089C11 9.17688 9.48874 7.53991 7.00234 7.53991C4.51575 7.53991 3 9.17707 3 10.3087C3 10.7838 3.36184 11 4.12656 11ZM3.90676 10.3474C3.78757 10.3474 3.73736 10.3172 3.73736 10.2265C3.73736 9.51803 4.90045 8.19179 7.00215 8.19179C9.10423 8.19179 10.2626 9.51803 10.2626 10.2265C10.2626 10.3172 10.2169 10.3474 10.0979 10.3474H3.90676Z" fill="#EB591E"/>
<path d="M7.277 0.0837417C7.19494 0.0291343 7.09857 0 7 0C6.90143 0 6.80506 0.0291343 6.723 0.0837417C4.83513 1.35644 2.68312 2.18421 0.429 2.50474C0.3099 2.52183 0.200956 2.58129 0.122155 2.67221C0.043355 2.76313 -1.6039e-05 2.87942 4.44938e-09 2.99974V7.49974C4.44938e-09 11.3907 2.307 14.2297 6.82 15.9667C6.93584 16.0114 7.06416 16.0114 7.18 15.9667C11.693 14.2297 14 11.3897 14 7.49974V2.99974C14 2.87927 13.9565 2.76286 13.8775 2.67192C13.7985 2.58097 13.6893 2.52161 13.57 2.50474C11.3162 2.18407 9.16457 1.3563 7.277 0.0837417ZM1 3.42774C2.98102 3.09222 4.88094 2.38586 6.6 1.34574L7 1.09674L7.4 1.34574C9.11906 2.38586 11.019 3.09222 13 3.42774V7.49974C13 10.8917 11.032 13.3627 7 14.9627C2.968 13.3627 1 10.8917 1 7.49974V3.42774Z" fill="#EB591E"/>
</svg>
