<svg width="26" height="26" viewBox="0 0 26 26" fill="none" xmlns="http://www.w3.org/2000/svg">
<path d="M10.8884 11.4913L3.2292 19.1505C3.02776 19.3517 2.86794 19.5907 2.75891 19.8537C2.64987 20.1167 2.59375 20.3987 2.59375 20.6834C2.59375 20.9681 2.64987 21.2501 2.75891 21.5131C2.86794 21.7761 3.02776 22.0151 3.2292 22.2163C3.63551 22.6225 4.18652 22.8507 4.76104 22.8507C5.33556 22.8507 5.88656 22.6225 6.29287 22.2163L13.952 14.555M18.6266 14.9504L22.8278 19.1516C23.234 19.5579 23.4622 20.1089 23.4622 20.6834C23.4622 21.2579 23.234 21.8089 22.8278 22.2152C22.4215 22.6214 21.8705 22.8496 21.296 22.8496C20.7214 22.8496 20.1704 22.6214 19.7641 22.2152L13.0377 15.4899M7.29495 6.39639L4.99504 7.16122L2.69837 3.33164L4.2302 1.7998L8.06087 4.09755L7.29495 6.39639ZM7.29495 6.39639L10.3608 9.46222" stroke="#EB591E" stroke-width="1.5" stroke-linecap="round" stroke-linejoin="round"/>
<path d="M10.8867 11.4918C9.97241 9.15935 10.1512 6.09893 12.0362 4.21393C13.9212 2.32893 17.3987 1.91618 19.3129 3.0656L16.0196 6.35893L15.713 9.72918L19.0832 9.42368L22.3766 6.12927C23.5271 8.0446 23.1132 11.5221 21.2282 13.406C19.3432 15.291 16.2839 15.4698 13.9515 14.5554" stroke="#EB591E" stroke-width="1.5" stroke-linecap="round" stroke-linejoin="round"/>
</svg>
