<svg width="70" height="70" viewBox="0 0 70 70" fill="none" xmlns="http://www.w3.org/2000/svg">
<circle cx="35" cy="35" r="35" fill="#EB591E"/>
<g clip-path="url(#clip0_9788_2586)">
<mask id="mask0_9788_2586" style="mask-type:luminance" maskUnits="userSpaceOnUse" x="15" y="17" width="40" height="36">
<path d="M55 17H15V53H55V17Z" fill="white"/>
</mask>
<g mask="url(#mask0_9788_2586)">
<path d="M52.6757 17.1525C52.6257 17.1638 52.4725 17.1893 52.335 17.2063C51.6536 17.3024 50.6659 17.6757 49.65 18.2244C46.3274 20.0146 41.1013 24.3444 34.6843 30.6284C32.6557 32.6166 30.3646 34.9441 28.8737 36.5392C28.6268 36.8022 28.3486 37.0991 28.2548 37.1981L28.086 37.3763L27.5078 37.1019C20.4969 33.8044 17.0305 33.0097 15.6021 34.3813C15.3051 34.6641 15.1707 34.9158 15.0613 35.3796C14.9801 35.7275 14.9801 35.7954 15.0582 36.0018C15.1645 36.2818 15.2551 36.3836 15.7834 36.822C16.9555 37.792 18.7559 39.4691 19.7811 40.5409C22.3004 43.1824 24.7884 46.5393 27.8578 51.4404C28.0829 51.7968 28.3173 52.1418 28.383 52.2097C28.5267 52.3568 28.6955 52.4501 28.9487 52.5208C29.1237 52.5689 29.1394 52.5689 29.3363 52.5208C29.6113 52.4557 29.7395 52.3907 29.8958 52.2436C30.0521 52.0966 30.0989 52.0146 30.3365 51.4716C30.6116 50.8465 31.1679 49.6389 31.5243 48.898C35.6626 40.2666 40.7137 32.9475 46.7681 26.8105C48.1716 25.388 50.1595 23.5525 52.5038 21.5163C54.4104 19.8619 54.7886 19.4405 54.9574 18.7702C55.0137 18.5411 55.0137 18.527 54.9605 18.346C54.7699 17.687 54.3135 17.3505 53.3789 17.178C53.0726 17.1242 52.8382 17.1129 52.6757 17.1525Z" fill="white"/>
</g>
</g>
<defs>
<clipPath id="clip0_9788_2586">
<rect width="40" height="36" fill="white" transform="translate(15 17)"/>
</clipPath>
</defs>
</svg>
