<svg width="36" height="36" viewBox="0 0 36 36" fill="none" xmlns="http://www.w3.org/2000/svg">
<circle cx="18" cy="18" r="18" fill="#CCFFE3"/>
<path d="M17.8846 23.1491C17.1175 23.1491 16.4357 23.0178 15.8391 22.755C15.2461 22.4922 14.7773 22.1264 14.4329 21.6577C14.0884 21.1889 13.9055 20.6474 13.8842 20.033H15.8871C15.9048 20.3278 16.0025 20.5852 16.18 20.8054C16.3576 21.022 16.5938 21.1907 16.8885 21.3114C17.1832 21.4322 17.5135 21.4925 17.8793 21.4925C18.2699 21.4925 18.6161 21.4251 18.918 21.2901C19.2198 21.1516 19.456 20.9599 19.6264 20.7148C19.7969 20.4698 19.8803 20.1875 19.8768 19.8679C19.8803 19.5376 19.7951 19.2464 19.6211 18.9943C19.4471 18.7422 19.195 18.5451 18.8647 18.4031C18.538 18.261 18.1438 18.19 17.6822 18.19H16.718V16.6665H17.6822C18.0621 16.6665 18.3942 16.6009 18.6783 16.4695C18.9659 16.3381 19.1914 16.1534 19.3548 15.9155C19.5181 15.674 19.598 15.3952 19.5945 15.0792C19.598 14.7702 19.5288 14.5021 19.3867 14.2749C19.2482 14.044 19.0511 13.8647 18.7955 13.7369C18.5433 13.609 18.2468 13.5451 17.9059 13.5451C17.5721 13.5451 17.2631 13.6055 16.979 13.7262C16.695 13.8469 16.4659 14.0192 16.2919 14.2429C16.1179 14.4631 16.0256 14.7259 16.0149 15.0312H14.1133C14.1275 14.4205 14.3033 13.8842 14.6406 13.4226C14.9815 12.9574 15.4361 12.5952 16.0043 12.3359C16.5724 12.0732 17.2099 11.9418 17.9165 11.9418C18.6445 11.9418 19.2766 12.0785 19.8129 12.3519C20.3526 12.6218 20.7699 12.9858 21.0646 13.4439C21.3594 13.902 21.5067 14.408 21.5067 14.962C21.5103 15.5763 21.3292 16.0913 20.9634 16.5067C20.6012 16.9222 20.1254 17.1939 19.5359 17.3217V17.407C20.3029 17.5135 20.8906 17.7976 21.299 18.2592C21.7109 18.7173 21.9151 19.2873 21.9116 19.9691C21.9116 20.5799 21.7376 21.1268 21.3896 21.6097C21.0451 22.0891 20.5692 22.4656 19.962 22.739C19.3583 23.0124 18.6658 23.1491 17.8846 23.1491Z" fill="#17D199"/>
</svg>
