<svg width="36" height="36" viewBox="0 0 36 36" fill="none" xmlns="http://www.w3.org/2000/svg">
<circle cx="18" cy="18" r="18" fill="#CCFFFF"/>
<path d="M13.9695 23V21.5724L17.7567 17.8597C18.119 17.494 18.4208 17.169 18.6623 16.8849C18.9038 16.6009 19.0849 16.3256 19.2056 16.0593C19.3263 15.793 19.3867 15.5089 19.3867 15.207C19.3867 14.8626 19.3086 14.5678 19.1523 14.3228C18.9961 14.0742 18.7812 13.8825 18.5078 13.7475C18.2344 13.6126 17.9237 13.5451 17.5756 13.5451C17.217 13.5451 16.9027 13.6197 16.6328 13.7688C16.3629 13.9144 16.1534 14.1222 16.0043 14.392C15.8587 14.6619 15.7859 14.9833 15.7859 15.3562H13.9055C13.9055 14.6637 14.0636 14.0618 14.3796 13.5504C14.6957 13.0391 15.1307 12.6431 15.6847 12.3626C16.2422 12.082 16.8814 11.9418 17.6023 11.9418C18.3338 11.9418 18.9766 12.0785 19.5305 12.3519C20.0845 12.6254 20.5142 13 20.8196 13.4759C21.1286 13.9517 21.283 14.495 21.283 15.1058C21.283 15.5142 21.2049 15.9155 21.0487 16.3097C20.8924 16.7038 20.6172 17.1406 20.223 17.62C19.8324 18.0994 19.2837 18.68 18.5771 19.3619L16.6967 21.2741V21.3487H21.4482V23H13.9695Z" fill="#1EDFEB"/>
</svg>
