<svg width="34" height="17" viewBox="0 0 34 17" fill="none" xmlns="http://www.w3.org/2000/svg">
<path d="M17 8.44588C19.1159 8.44588 20.8408 6.5142 20.8408 4.16384C20.8408 1.84023 19.125 0 17 0C14.8932 0 13.1592 1.8676 13.1592 4.18188C13.1677 6.52353 14.8926 8.44588 17 8.44588ZM6.7575 8.64558C8.58864 8.64558 10.0913 6.95964 10.0913 4.89172C10.0913 2.86983 8.60686 1.23864 6.7575 1.23864C4.92575 1.23864 3.41396 2.89658 3.42307 4.90976C3.43218 6.96897 4.92575 8.64558 6.7575 8.64558ZM27.2516 8.64558C29.0742 8.64558 30.5769 6.96897 30.5769 4.90976C30.586 2.89658 29.0742 1.23864 27.2516 1.23864C25.3937 1.23864 23.9087 2.86921 23.9087 4.89172C23.9087 6.95964 25.4114 8.64558 27.2516 8.64558ZM17 7.06975C15.7019 7.06975 14.5903 5.79441 14.5903 4.18188C14.5903 2.59672 15.6843 1.37613 17.0006 1.37613C18.3248 1.37613 19.4098 2.57868 19.4098 4.16321C19.4098 5.77637 18.3157 7.06975 17 7.06975ZM6.7575 7.28874C5.67254 7.28874 4.74786 6.22243 4.74786 4.91038C4.74786 3.62633 5.66343 2.5961 6.7575 2.5961C7.87768 2.5961 8.77564 3.60766 8.77564 4.89234C8.77564 6.22243 7.85096 7.28874 6.7575 7.28874ZM27.2516 7.28874C26.149 7.28874 25.2244 6.22243 25.2244 4.89234C25.2244 3.60766 26.1223 2.59672 27.2516 2.59672C28.3451 2.59672 29.2521 3.62633 29.2521 4.911C29.2521 6.22243 28.336 7.28874 27.2516 7.28874ZM1.81354 17H8.79325C8.36643 16.7543 8.03736 16.2074 8.09989 15.6519H1.59132C1.41343 15.6519 1.32479 15.5791 1.32479 15.4061C1.32479 13.1466 3.84079 11.0326 6.74839 11.0326C7.86857 11.0326 8.87339 11.3064 9.73554 11.8252C10.0214 11.4537 10.3602 11.1282 10.7404 10.8597C9.59346 10.0852 8.21525 9.68451 6.74839 9.68451C3.02296 9.68451 0 12.4542 0 15.4883C0 16.4992 0.604714 17 1.81354 17ZM32.195 17C33.3953 17 34 16.4992 34 15.4883C34 12.4542 30.9764 9.68451 27.2516 9.68451C25.7847 9.68451 24.415 10.0852 23.2596 10.8603C23.6598 11.1421 23.9882 11.4613 24.2736 11.8252C25.1266 11.3064 26.1399 11.0326 27.2516 11.0326C30.1592 11.0326 32.6752 13.1466 32.6752 15.4061C32.6752 15.5791 32.5951 15.6519 32.4172 15.6519H25.9086C25.962 16.2074 25.6421 16.7543 25.2152 17H32.195ZM11.4161 17H22.5839C24.0592 17 24.7623 16.5446 24.7623 15.5424C24.7623 13.1553 21.8189 9.70255 17 9.70255C12.172 9.70255 9.22857 13.1553 9.22857 15.5424C9.22857 16.5446 9.93164 17 11.4161 17ZM10.9893 15.6251C10.7586 15.6251 10.6608 15.561 10.6608 15.3701C10.6608 13.8751 12.9194 11.0787 17 11.0787C21.0721 11.0787 23.3307 13.8751 23.3307 15.3694C23.3307 15.561 23.2414 15.6245 23.0107 15.6245L10.9893 15.6251Z" fill="#EB591E"/>
</svg>
