<svg width="18" height="18" viewBox="0 0 18 18" fill="none" xmlns="http://www.w3.org/2000/svg">
<path d="M1 1H2.77778L3.13333 2.77778M3.13333 2.77778H17L13.4444 9.88889H4.55556M3.13333 2.77778L4.55556 9.88889M4.55556 9.88889L2.51733 11.9271C1.95733 12.4871 2.35378 13.4444 3.14578 13.4444H13.4444M13.4444 13.4444C12.9729 13.4444 12.5208 13.6317 12.1874 13.9651C11.854 14.2985 11.6667 14.7507 11.6667 15.2222C11.6667 15.6937 11.854 16.1459 12.1874 16.4793C12.5208 16.8127 12.9729 17 13.4444 17C13.9159 17 14.3681 16.8127 14.7015 16.4793C15.0349 16.1459 15.2222 15.6937 15.2222 15.2222C15.2222 14.7507 15.0349 14.2985 14.7015 13.9651C14.3681 13.6317 13.9159 13.4444 13.4444 13.4444ZM6.33333 15.2222C6.33333 15.6937 6.14603 16.1459 5.81263 16.4793C5.47924 16.8127 5.02705 17 4.55556 17C4.08406 17 3.63187 16.8127 3.29848 16.4793C2.96508 16.1459 2.77778 15.6937 2.77778 15.2222C2.77778 14.7507 2.96508 14.2985 3.29848 13.9651C3.63187 13.6317 4.08406 13.4444 4.55556 13.4444C5.02705 13.4444 5.47924 13.6317 5.81263 13.9651C6.14603 14.2985 6.33333 14.7507 6.33333 15.2222Z" stroke="#EB591E" stroke-width="1.5" stroke-linecap="round" stroke-linejoin="round"/>
</svg>
