<svg width="33" height="33" viewBox="0 0 33 33" fill="none" xmlns="http://www.w3.org/2000/svg">
<path d="M24.2394 4.62036C23.1987 4.62036 22.2006 5.03379 21.4647 5.76969C20.7288 6.50559 20.3153 7.50369 20.3153 8.54441V24.2406C20.3153 25.2813 20.7288 26.2794 21.4647 27.0153C22.2006 27.7512 23.1987 28.1647 24.2394 28.1647C25.2801 28.1647 26.2782 27.7512 27.0141 27.0153C27.75 26.2794 28.1634 25.2813 28.1634 24.2406C28.1634 23.1999 27.75 22.2018 27.0141 21.4659C26.2782 20.73 25.2801 20.3166 24.2394 20.3166H8.54319C7.50247 20.3166 6.50437 20.73 5.76847 21.4659C5.03257 22.2018 4.61914 23.1999 4.61914 24.2406C4.61914 25.2813 5.03257 26.2794 5.76847 27.0153C6.50437 27.7512 7.50247 28.1647 8.54319 28.1647C9.58391 28.1647 10.582 27.7512 11.3179 27.0153C12.0538 26.2794 12.4672 25.2813 12.4672 24.2406V8.54441C12.4672 7.50369 12.0538 6.50559 11.3179 5.76969C10.582 5.03379 9.58391 4.62036 8.54319 4.62036C7.50247 4.62036 6.50437 5.03379 5.76847 5.76969C5.03257 6.50559 4.61914 7.50369 4.61914 8.54441C4.61914 9.58513 5.03257 10.5832 5.76847 11.3191C6.50437 12.055 7.50247 12.4685 8.54319 12.4685H24.2394C25.2801 12.4685 26.2782 12.055 27.0141 11.3191C27.75 10.5832 28.1634 9.58513 28.1634 8.54441C28.1634 7.50369 27.75 6.50559 27.0141 5.76969C26.2782 5.03379 25.2801 4.62036 24.2394 4.62036Z" stroke="black" stroke-width="2" stroke-linecap="round" stroke-linejoin="round"/>
</svg>
