<svg width="25" height="25" viewBox="0 0 25 25" fill="none" xmlns="http://www.w3.org/2000/svg">
<path d="M23.1524 0.0035194C19.3074 -0.00727004 5.12553 0.0108878 1.84763 0.0035194C0.827632 0.0035194 0 0.805885 0 1.79404V23.21C0 24.1984 0.827632 25 1.84763 25H23.1524C24.1729 25 25 24.1984 25 23.2097V1.79404C25 0.805885 24.1729 0.0035194 23.1524 0.0035194Z" fill="white" fill-opacity="0.8"/>
<path d="M13.4088 20.9238V14.6399C13.3722 13.4852 14.0624 12.4076 15.4514 12.3591C16.8048 12.3591 17.3464 13.391 17.3464 14.9039V20.9236H21.0869V14.4712C21.0869 11.0147 19.2417 9.40625 16.7803 9.40625C14.7624 9.40625 13.8761 10.5339 13.3838 11.302L13.4088 9.67046H9.66823C9.71692 10.7262 9.66797 20.9238 9.66797 20.9238H13.4088Z" fill="#141F39"/>
<path d="M7.5975 16.0455V9.67188H3.85645V20.9253H7.59776C7.59697 19.7437 7.59908 17.2105 7.5975 16.0455Z" fill="#141F39"/>
<path d="M5.72759 8.13453C7.0318 8.13453 7.84391 7.27032 7.84391 6.19059C7.83312 3.58612 3.63233 3.61507 3.63575 6.19032C3.63285 7.27848 4.46733 8.14795 5.72759 8.13453Z" fill="#141F39"/>
</svg>
