<svg width="25" height="25" viewBox="0 0 25 25" fill="none" xmlns="http://www.w3.org/2000/svg">
<path d="M13.59 13.292C15.149 13.292 16.413 12.0282 16.413 10.469C16.413 8.90993 15.149 7.64602 13.59 7.64602C12.0308 7.64602 10.7669 8.90993 10.7669 10.469C10.7669 12.0282 12.0308 13.292 13.59 13.292ZM13.59 13.292C10.3859 13.292 7.70225 15.3004 7.00292 17.9971M13.59 13.292C16.794 13.292 19.4776 15.3004 20.177 17.9971M5.74825 17.0561L2.45474 20.3496C1.84842 20.9559 1.84842 21.9389 2.45474 22.5452C3.06106 23.1516 4.04409 23.1516 4.65041 22.5452L7.94393 19.2517M23 11.41C23 16.607 18.7869 20.8201 13.59 20.8201C8.39293 20.8201 4.17991 16.607 4.17991 11.41C4.17991 6.21301 8.39293 2 13.59 2C18.7869 2 23 6.21301 23 11.41Z" stroke="#EB591E" stroke-width="1.8" stroke-linecap="round" stroke-linejoin="round"/>
</svg>
