<svg width="33" height="33" viewBox="0 0 33 33" fill="none" xmlns="http://www.w3.org/2000/svg">
<path d="M5.71429 5H4V27.2857C4 27.7404 4.18061 28.1764 4.5021 28.4979C4.82359 28.8194 5.25963 29 5.71429 29H28V27.2857H5.71429V5Z" fill="black"/>
<path d="M28 10H21.875V11.7143H25.0163L18.375 18.22L14.6213 14.5343C14.5399 14.4539 14.4431 14.3902 14.3365 14.3467C14.2299 14.3031 14.1155 14.2807 14 14.2807C13.8845 14.2807 13.7701 14.3031 13.6635 14.3467C13.5569 14.3902 13.4601 14.4539 13.3787 14.5343L7 20.7914L8.23375 22L14 16.3514L17.7538 20.0371C17.8351 20.1175 17.9319 20.1812 18.0385 20.2248C18.1451 20.2683 18.2595 20.2907 18.375 20.2907C18.4905 20.2907 18.6049 20.2683 18.7115 20.2248C18.8181 20.1812 18.9149 20.1175 18.9962 20.0371L26.25 12.9229V16H28V10Z" fill="black"/>
</svg>
