<svg width="33" height="33" viewBox="0 0 33 33" fill="none" xmlns="http://www.w3.org/2000/svg">
<path d="M16 3C10.4792 3 6 6.98464 6 11.8923C6 17.5392 12.6667 26.4879 15.1146 29.5788C15.2162 29.7093 15.3494 29.8154 15.5032 29.8886C15.6571 29.9618 15.8273 30 16 30C16.1727 30 16.3429 29.9618 16.4968 29.8886C16.6506 29.8154 16.7838 29.7093 16.8854 29.5788C19.3333 26.4892 26 17.5437 26 11.8923C26 6.98464 21.5208 3 16 3Z" stroke="black" stroke-width="2" stroke-linecap="round" stroke-linejoin="round"/>
<path d="M16.2 17.625C18.6852 17.625 20.7 15.6103 20.7 13.125C20.7 10.6397 18.6852 8.625 16.2 8.625C13.7147 8.625 11.7 10.6397 11.7 13.125C11.7 15.6103 13.7147 17.625 16.2 17.625Z" stroke="black" stroke-width="2" stroke-linecap="round" stroke-linejoin="round"/>
</svg>
