<svg width="33" height="33" viewBox="0 0 33 33" fill="none" xmlns="http://www.w3.org/2000/svg">
<path d="M28 5L18.7429 14.2571M28 5H19.4286M28 5V13.5714M4 20.4286C4 22.7019 4.90306 24.882 6.51051 26.4895C8.11797 28.0969 10.2981 29 12.5714 29C14.8447 29 17.0249 28.0969 18.6323 26.4895C20.2398 24.882 21.1429 22.7019 21.1429 20.4286C21.1429 18.1553 20.2398 15.9751 18.6323 14.3677C17.0249 12.7602 14.8447 11.8571 12.5714 11.8571C10.2981 11.8571 8.11797 12.7602 6.51051 14.3677C4.90306 15.9751 4 18.1553 4 20.4286Z" stroke="black" stroke-width="2" stroke-linecap="round" stroke-linejoin="round"/>
</svg>
