<svg width="98" height="98" viewBox="0 0 98 98" fill="none" xmlns="http://www.w3.org/2000/svg">
<path d="M74.1361 88.543C73.7323 88.9522 73.2525 89.2764 72.7245 89.4981C72.1965 89.7194 71.6306 89.8333 71.0589 89.8333C70.4872 89.8333 69.9213 89.7194 69.3933 89.4981C68.8653 89.2764 68.3855 88.9522 67.9817 88.543L58.7289 79.1885C58.3246 78.7798 58.0041 78.2947 57.7852 77.761C57.5667 77.2273 57.454 76.6552 57.454 76.0774C57.454 75.4996 57.5667 74.9275 57.7852 74.3938C58.0041 73.8602 58.3246 73.3751 58.7289 72.9667C59.5447 72.1415 60.6517 71.678 61.8057 71.678C62.3773 71.678 62.9433 71.7919 63.4712 72.0128C63.9992 72.2342 64.4786 72.558 64.8829 72.9667L71.0368 79.1885L86.4878 63.5681C86.892 63.1594 87.3718 62.8352 87.8998 62.6142C88.4278 62.3933 88.9933 62.2794 89.565 62.2794C90.1362 62.2794 90.7022 62.3933 91.2302 62.6142C91.7581 62.8352 92.2379 63.1594 92.6422 63.5681C93.046 63.9764 93.3666 64.4615 93.5854 64.9952C93.8039 65.5289 93.9166 66.101 93.9166 66.6788C93.9166 67.2566 93.8039 67.8287 93.5854 68.3624C93.3666 68.896 93.046 69.3811 92.6422 69.7895L74.1361 88.543ZM48.0791 82.8508H12.8126C8.01142 82.8508 4.08325 78.8794 4.08325 74.0255V21.0751C4.08325 16.2213 8.01142 12.25 12.8126 12.25H82.647C87.4482 12.25 91.3763 16.2213 91.3763 21.0751V50.5509C86.7213 48.3124 81.5816 47.3013 76.4362 47.6129C71.2908 47.924 66.3071 49.5476 61.9494 52.3316C57.5921 55.1156 54.0028 58.9699 51.5165 63.535C49.0301 68.0998 47.7271 73.2268 47.7296 78.4384C47.7296 79.9386 47.8607 81.3947 48.0791 82.8508ZM45.4164 50.5068C46.8133 51.3892 48.6463 51.3892 50.0432 50.5068L80.901 31.0033C81.3387 30.7549 81.7221 30.4194 82.0275 30.0169C82.3334 29.6145 82.5551 29.1535 82.6792 28.6619C82.8038 28.1703 82.8283 27.6583 82.7511 27.1569C82.6739 26.6556 82.4971 26.1752 82.2309 25.7449C81.9651 25.3146 81.6155 24.9434 81.2035 24.6537C80.7915 24.3639 80.3256 24.1617 79.834 24.0593C79.3423 23.9569 78.8352 23.9563 78.3436 24.0577C77.8519 24.1592 77.3856 24.3604 76.9728 24.6492L47.7296 43.138L18.4866 24.6492C18.074 24.3604 17.6077 24.1592 17.1159 24.0577C16.6241 23.9563 16.1171 23.9569 15.6256 24.0593C15.134 24.1617 14.6681 24.3639 14.2561 24.6537C13.844 24.9434 13.4944 25.3146 13.2284 25.7449C12.9624 26.1752 12.7855 26.6556 12.7085 27.1569C12.6314 27.6583 12.6558 28.1703 12.7801 28.6619C12.9045 29.1535 13.1262 29.6145 13.4318 30.0169C13.7375 30.4194 14.1208 30.7549 14.5584 31.0033L45.4164 50.5068Z" fill="#06B14B"/>
</svg>
