<svg width="19" height="19" viewBox="0 0 19 19" fill="none" xmlns="http://www.w3.org/2000/svg">
<circle cx="9.5" cy="9.5" r="9" stroke="#8C8C8C"/>
<path d="M8.92045 14V7.45455H9.92614V14H8.92045ZM9.43182 6.36364C9.2358 6.36364 9.06676 6.29688 8.92472 6.16335C8.78551 6.02983 8.71591 5.86932 8.71591 5.68182C8.71591 5.49432 8.78551 5.33381 8.92472 5.20028C9.06676 5.06676 9.2358 5 9.43182 5C9.62784 5 9.79545 5.06676 9.93466 5.20028C10.0767 5.33381 10.1477 5.49432 10.1477 5.68182C10.1477 5.86932 10.0767 6.02983 9.93466 6.16335C9.79545 6.29688 9.62784 6.36364 9.43182 6.36364Z" fill="#8C8C8C"/>
</svg>
