<svg width="42" height="42" viewBox="0 0 42 42" fill="none" xmlns="http://www.w3.org/2000/svg">
<path d="M20.8947 40.7895C31.8823 40.7895 40.7895 31.8823 40.7895 20.8947C40.7895 9.90718 31.8823 1 20.8947 1C9.90718 1 1 9.90718 1 20.8947C1 31.8823 9.90718 40.7895 20.8947 40.7895Z" stroke="#777777" stroke-width="1.5"/>
<path d="M20.1874 25.6016C20.5779 25.9922 21.2111 25.9922 21.6016 25.6016L27.9656 19.2377C28.3561 18.8472 28.3561 18.214 27.9656 17.8235C27.5751 17.4329 26.9419 17.4329 26.5514 17.8235L20.8945 23.4803L15.2377 17.8235C14.8472 17.4329 14.214 17.4329 13.8235 17.8235C13.4329 18.214 13.4329 18.8472 13.8235 19.2377L20.1874 25.6016ZM19.8945 23.8945V24.8945H21.8945V23.8945H19.8945Z" fill="#777777"/>
</svg>
