<svg width="36" height="36" viewBox="0 0 36 36" fill="none" xmlns="http://www.w3.org/2000/svg">
<circle cx="18" cy="18" r="18" fill="#F6D4FF"/>
<g clip-path="url(#clip0_10540_2687)">
<path d="M12.24 17.54L23.74 12.31M23.74 12.31L21.59 11.5M23.74 12.31L22.94 14.46M24.25 24.5H21.75V17.5C21.75 17.3674 21.8027 17.2402 21.8964 17.1464C21.9902 17.0527 22.1174 17 22.25 17H23.75C23.8826 17 24.0098 17.0527 24.1036 17.1464C24.1973 17.2402 24.25 17.3674 24.25 17.5V24.5ZM19.25 24.5H16.75V19C16.75 18.8674 16.8027 18.7402 16.8964 18.6464C16.9902 18.5527 17.1174 18.5 17.25 18.5H18.75C18.8826 18.5 19.0098 18.5527 19.1036 18.6464C19.1973 18.7402 19.25 18.8674 19.25 19V24.5ZM14.25 24.5H11.75V20.5C11.75 20.3674 11.8027 20.2402 11.8964 20.1464C11.9902 20.0527 12.1174 20 12.25 20H13.75C13.8826 20 14.0098 20.0527 14.1036 20.1464C14.1973 20.2402 14.25 20.3674 14.25 20.5V24.5Z" stroke="#F051FE" stroke-linecap="round" stroke-linejoin="round"/>
</g>
<defs>
<clipPath id="clip0_10540_2687">
<rect width="14" height="14" fill="white" transform="translate(11 11)"/>
</clipPath>
</defs>
</svg>
