<svg width="36" height="36" viewBox="0 0 36 36" fill="none" xmlns="http://www.w3.org/2000/svg">
<circle cx="18" cy="18" r="18" fill="#FFF4CC"/>
<path d="M21.6711 17.4647C23.124 17.4647 24.3079 16.2149 24.3079 14.6942C24.3079 13.1909 23.1301 12 21.6711 12C20.2243 12 19.034 13.2084 19.034 14.706C19.0401 16.2208 20.2243 17.4647 21.6711 17.4647ZM14.6392 17.5943C15.8966 17.5943 16.9281 16.5037 16.9281 15.1656C16.9281 13.8569 15.9087 12.8018 14.6392 12.8018C13.3818 12.8018 12.3442 13.8748 12.3503 15.1774C12.3563 16.5098 13.3818 17.5943 14.6392 17.5943ZM21.6711 16.5746C20.7798 16.5746 20.0166 15.7493 20.0166 14.706C20.0166 13.6799 20.7677 12.8904 21.6711 12.8904C22.5806 12.8904 23.3253 13.6684 23.3253 14.6939C23.3253 15.7376 22.5745 16.5746 21.6711 16.5746ZM14.6392 16.7159C13.8945 16.7159 13.2598 16.0264 13.2598 15.1774C13.2598 14.3462 13.8881 13.6802 14.6392 13.6802C15.4081 13.6802 16.0247 14.3345 16.0247 15.1656C16.0247 16.0264 15.3899 16.7159 14.6392 16.7159ZM11.2453 23H16.0371C15.7439 22.8408 15.518 22.487 15.5608 22.1275H11.0929C10.9708 22.1275 10.9098 22.0806 10.9098 21.9683C10.9098 20.5066 12.6371 19.139 14.6334 19.139C15.4024 19.139 16.0921 19.3157 16.6843 19.6517C16.8807 19.4114 17.1132 19.2008 17.3741 19.027C16.5866 18.5257 15.6407 18.2665 14.6334 18.2665C12.0755 18.2665 10 20.0583 10 22.0214C10 22.6758 10.415 23 11.2453 23ZM17.8376 23H25.5046C26.5176 23 27 22.7054 27 22.0569C27 20.5125 24.9794 18.2779 21.6711 18.2779C18.3564 18.2779 16.3361 20.5125 16.3361 22.0569C16.3361 22.7054 16.8182 23 17.8376 23ZM17.5447 22.1099C17.3859 22.1099 17.3188 22.0689 17.3188 21.9449C17.3188 20.978 18.8691 19.1686 21.6711 19.1686C24.467 19.1686 26.017 20.978 26.017 21.9449C26.017 22.0686 25.9563 22.1099 25.7972 22.1099H17.5447Z" fill="#FFA740"/>
</svg>
