<svg width="36" height="36" viewBox="0 0 36 36" fill="none" xmlns="http://www.w3.org/2000/svg">
<circle cx="18" cy="18" r="18" fill="#CCF9FF"/>
<mask id="mask0_10541_2693" style="mask-type:luminance" maskUnits="userSpaceOnUse" x="10" y="9" width="17" height="17">
<path d="M27 9H10V26H27V9Z" fill="white"/>
</mask>
<g mask="url(#mask0_10541_2693)">
<path d="M18.5978 12.2143C18.8362 12.1191 19.0959 12.0904 19.3493 12.1313C19.6027 12.1723 19.8402 12.2812 20.0364 12.4467L20.1257 12.5281L23.4719 15.8743C23.6536 16.0558 23.7826 16.2833 23.8449 16.5325C23.9073 16.7817 23.9008 17.0431 23.826 17.2888L23.7856 17.4022L22.1104 21.5906C22.0165 21.825 21.8615 22.0302 21.6617 22.1846C21.4617 22.339 21.2242 22.4372 20.9735 22.4689L17.3759 22.9187C17.2839 22.9293 17.1861 22.9428 17.0855 22.9583L16.771 23.0093L16.6067 23.0391L16.0945 23.1383L15.7439 23.2133L15.2162 23.3317L14.5398 23.4932L13.4404 23.7737L12.9828 23.8969C12.8674 23.9287 12.7458 23.9309 12.6292 23.9035C12.5126 23.876 12.4048 23.8197 12.3156 23.7398C12.2265 23.6598 12.1588 23.5588 12.1188 23.4459C12.0788 23.333 12.0678 23.2119 12.0868 23.0937L12.1109 22.9902L12.3198 22.2025L12.5069 21.4602L12.6683 20.7838L12.7866 20.2561L12.861 19.9047L12.9609 19.3933L13.0176 19.0696L13.0629 18.7664L13.5304 15.0264C13.5598 14.7956 13.6456 14.5756 13.7803 14.3858C13.9149 14.196 14.0943 14.0424 14.3025 13.9384L14.4094 13.8895L18.5978 12.2143ZM19.1234 13.5297L14.9357 15.2049L14.5221 18.5143L14.4881 18.7948C14.4186 19.3158 14.3276 19.8338 14.2154 20.3474L14.0942 20.9042L16.4232 18.5752C16.3425 18.2739 16.3634 17.9545 16.4827 17.6663C16.6021 17.3782 16.8131 17.1375 17.0832 16.9815C17.3533 16.8256 17.6673 16.7632 17.9764 16.8038C18.2857 16.8445 18.5728 16.9861 18.7933 17.2067C19.0139 17.4272 19.1555 17.7143 19.1961 18.0235C19.2368 18.3327 19.1744 18.6467 19.0184 18.9168C18.8625 19.1869 18.6218 19.3979 18.3336 19.5173C18.0455 19.6366 17.7261 19.6575 17.4248 19.5768L15.0958 21.9058L15.3735 21.8442L15.9288 21.7273C16.2749 21.6564 16.6228 21.595 16.9722 21.5431L20.795 21.0643L22.4703 16.8766L19.1234 13.5297ZM20.7972 11.1965C20.9191 11.0744 21.0813 11.001 21.2534 10.99C21.4256 10.9791 21.5958 11.0313 21.7322 11.137L21.7988 11.1965L24.8035 14.2012C24.9319 14.3284 25.0069 14.4998 25.013 14.6804C25.0191 14.861 24.956 15.0372 24.8365 15.1727C24.717 15.3083 24.5502 15.3931 24.3703 15.4098C24.1904 15.4264 24.0108 15.3737 23.8685 15.2623L23.8019 15.2028L20.7972 12.198C20.6644 12.0652 20.5898 11.8851 20.5898 11.6972C20.5898 11.5094 20.6644 11.3293 20.7972 11.1965Z" fill="#28C5E7"/>
</g>
</svg>
