<svg width="36" height="36" viewBox="0 0 36 36" fill="none" xmlns="http://www.w3.org/2000/svg">
<circle cx="18" cy="18" r="18" fill="#CCFFFF"/>
<g clip-path="url(#clip0_10541_2712)">
<mask id="path-2-inside-1_10541_2712" fill="white">
<path d="M18.0023 17.0041C19.0922 17.0041 19.9806 16.0885 19.9806 14.9741C19.9806 13.8683 19.1013 13 18.0023 13C16.917 13 16.0241 13.8856 16.0241 14.9827C16.0286 16.0928 16.917 17.0041 18.0023 17.0041ZM18.0023 16.3519C17.3338 16.3519 16.7613 15.7474 16.7613 14.9825C16.7613 14.2311 17.3246 13.6523 18.0023 13.6523C18.6891 13.6523 19.2432 14.2225 19.2432 14.9741C19.2432 15.7385 18.6799 16.3519 18.0023 16.3519ZM15.1266 21H20.8781C21.6382 21 22 20.7838 22 20.3089C22 19.1769 20.4887 17.5399 18.0023 17.5399C15.5157 17.5399 14 19.1771 14 20.3087C14 20.7838 14.3618 21 15.1266 21ZM14.9068 20.3474C14.7876 20.3474 14.7374 20.3172 14.7374 20.2265C14.7374 19.518 15.9004 18.1918 18.0022 18.1918C20.1042 18.1918 21.2626 19.518 21.2626 20.2265C21.2626 20.3172 21.2169 20.3474 21.0979 20.3474H14.9068Z"/>
</mask>
<path d="M18.0023 17.0041C19.0922 17.0041 19.9806 16.0885 19.9806 14.9741C19.9806 13.8683 19.1013 13 18.0023 13C16.917 13 16.0241 13.8856 16.0241 14.9827C16.0286 16.0928 16.917 17.0041 18.0023 17.0041ZM18.0023 16.3519C17.3338 16.3519 16.7613 15.7474 16.7613 14.9825C16.7613 14.2311 17.3246 13.6523 18.0023 13.6523C18.6891 13.6523 19.2432 14.2225 19.2432 14.9741C19.2432 15.7385 18.6799 16.3519 18.0023 16.3519ZM15.1266 21H20.8781C21.6382 21 22 20.7838 22 20.3089C22 19.1769 20.4887 17.5399 18.0023 17.5399C15.5157 17.5399 14 19.1771 14 20.3087C14 20.7838 14.3618 21 15.1266 21ZM14.9068 20.3474C14.7876 20.3474 14.7374 20.3172 14.7374 20.2265C14.7374 19.518 15.9004 18.1918 18.0022 18.1918C20.1042 18.1918 21.2626 19.518 21.2626 20.2265C21.2626 20.3172 21.2169 20.3474 21.0979 20.3474H14.9068Z" fill="#1EDFEB"/>
<path d="M16.0241 14.9827L15.0241 14.9827L15.0241 14.9868L16.0241 14.9827ZM18.0023 18.0041C19.6699 18.0041 20.9806 16.615 20.9806 14.9741H18.9806C18.9806 15.5621 18.5144 16.0041 18.0023 16.0041V18.0041ZM20.9806 14.9741C20.9806 13.311 19.6486 12 18.0023 12V14C18.5541 14 18.9806 14.4255 18.9806 14.9741H20.9806ZM18.0023 12C16.3656 12 15.0241 13.3324 15.0241 14.9827H17.0241C17.0241 14.4388 17.4684 14 18.0023 14V12ZM15.0241 14.9868C15.0308 16.6221 16.3412 18.0041 18.0023 18.0041V16.0041C17.4928 16.0041 17.0265 15.5635 17.0241 14.9787L15.0241 14.9868ZM18.0023 15.3519C17.978 15.3519 17.9261 15.3413 17.8675 15.2775C17.8097 15.2146 17.7613 15.1134 17.7613 14.9825H15.7613C15.7613 16.2182 16.7034 17.3519 18.0023 17.3519V15.3519ZM17.7613 14.9825C17.7613 14.7294 17.9293 14.6523 18.0023 14.6523V12.6523C16.7198 12.6523 15.7613 13.7328 15.7613 14.9825H17.7613ZM18.0023 14.6523C18.0601 14.6523 18.1114 14.6738 18.1548 14.7196C18.1986 14.7657 18.2432 14.8481 18.2432 14.9741H20.2432C20.2432 13.7205 19.2904 12.6523 18.0023 12.6523V14.6523ZM18.2432 14.9741C18.2432 15.1099 18.1935 15.2146 18.1358 15.2782C18.0786 15.3413 18.0287 15.3519 18.0023 15.3519V17.3519C19.3227 17.3519 20.2432 16.1957 20.2432 14.9741H18.2432ZM15.1266 22H20.8781V20H15.1266V22ZM20.8781 22C21.3154 22 21.822 21.9448 22.2458 21.6857C22.7623 21.3698 23 20.8528 23 20.3089H21C21 20.3002 21.0022 20.2361 21.0466 20.1517C21.0934 20.0626 21.1581 20.0065 21.2024 19.9794C21.2382 19.9575 21.2421 19.9656 21.1811 19.9776C21.1215 19.9893 21.0243 20 20.8781 20V22ZM23 20.3089C23 19.3362 22.39 18.3842 21.5582 17.7189C20.6899 17.0246 19.4696 16.5399 18.0023 16.5399V18.5399C19.0215 18.5399 19.8 18.8738 20.309 19.2808C20.8544 19.717 21 20.1496 21 20.3089H23ZM18.0023 16.5399C16.5351 16.5399 15.3139 17.0245 14.4447 17.7185C13.6123 18.3831 13 19.335 13 20.3087H15C15 20.1507 15.1455 19.7183 15.6927 19.2814C16.2031 18.8739 16.983 18.5399 18.0023 18.5399V16.5399ZM13 20.3087C13 20.853 13.238 21.3705 13.7559 21.6863C14.1802 21.945 14.6878 22 15.1266 22V20C14.979 20 14.8806 19.9893 14.82 19.9774C14.7581 19.9653 14.7614 19.957 14.7971 19.9787C14.8413 20.0056 14.9061 20.0617 14.9532 20.1511C14.9979 20.2358 15 20.3001 15 20.3087H13ZM14.9068 19.3474C14.9136 19.3474 14.9587 19.3473 15.0241 19.3603C15.0896 19.3732 15.2122 19.4063 15.3442 19.4971C15.4891 19.5968 15.6015 19.7362 15.6686 19.8952C15.7294 20.0396 15.7374 20.1629 15.7374 20.2265H13.7374C13.7374 20.4625 13.8149 20.8726 14.2105 21.1448C14.5056 21.3478 14.8176 21.3474 14.9068 21.3474V19.3474ZM15.7374 20.2265C15.7374 20.3022 15.716 20.2723 15.7967 20.1448C15.8683 20.0318 15.9944 19.8856 16.1862 19.74C16.5639 19.4533 17.1673 19.1918 18.0022 19.1918V17.1918C16.7353 17.1918 15.7063 17.5934 14.977 18.1469C14.6154 18.4214 14.3193 18.7396 14.1072 19.0745C13.9041 19.395 13.7374 19.7966 13.7374 20.2265H15.7374ZM18.0022 19.1918C18.8372 19.1918 19.4391 19.4533 19.8153 19.7394C20.0064 19.8848 20.132 20.0308 20.2033 20.1437C20.2836 20.2709 20.2626 20.3012 20.2626 20.2265H22.2626C22.2626 19.7976 22.0968 19.3964 21.8943 19.0757C21.6827 18.7407 21.3873 18.4223 21.026 18.1475C20.2975 17.5934 19.2692 17.1918 18.0022 17.1918V19.1918ZM20.2626 20.2265C20.2626 20.1114 20.2981 19.7554 20.6416 19.5087C20.778 19.4108 20.9066 19.375 20.9757 19.3611C21.0441 19.3473 21.0914 19.3474 21.0979 19.3474V21.3474C21.1829 21.3474 21.5069 21.3496 21.8082 21.1332C22.2043 20.8487 22.2626 20.4323 22.2626 20.2265H20.2626ZM21.0979 19.3474H14.9068V21.3474H21.0979V19.3474Z" fill="#1EDFEB" mask="url(#path-2-inside-1_10541_2712)"/>
<path d="M18.277 10.0837C18.1949 10.0291 18.0986 10 18 10C17.9014 10 17.8051 10.0291 17.723 10.0837C15.8351 11.3564 13.6831 12.1842 11.429 12.5047C11.3099 12.5218 11.201 12.5813 11.1222 12.6722C11.0434 12.7631 11 12.8794 11 12.9997V17.4997C11 21.3907 13.307 24.2297 17.82 25.9667C17.9358 26.0114 18.0642 26.0114 18.18 25.9667C22.693 24.2297 25 21.3897 25 17.4997V12.9997C25 12.8793 24.9565 12.7629 24.8775 12.6719C24.7985 12.581 24.6893 12.5216 24.57 12.5047C22.3162 12.1841 20.1646 11.3563 18.277 10.0837ZM12 13.4277C13.981 13.0922 15.8809 12.3859 17.6 11.3457L18 11.0967L18.4 11.3457C20.1191 12.3859 22.019 13.0922 24 13.4277V17.4997C24 20.8917 22.032 23.3627 18 24.9627C13.968 23.3627 12 20.8917 12 17.4997V13.4277Z" fill="#1EDFEB"/>
</g>
<defs>
<clipPath id="clip0_10541_2712">
<rect width="14" height="16" fill="white" transform="translate(11 10)"/>
</clipPath>
</defs>
</svg>
