<svg width="36" height="36" viewBox="0 0 36 36" fill="none" xmlns="http://www.w3.org/2000/svg">
<circle cx="18" cy="18" r="18" fill="#CCFFE3"/>
<mask id="path-2-inside-1_10541_2704" fill="white">
<path fill-rule="evenodd" clip-rule="evenodd" d="M23.4438 13C23.5913 13 23.7328 13.0586 23.8371 13.1629C23.9414 13.2672 24 13.4087 24 13.5562V18.5C24 18.6475 23.9414 18.789 23.8371 18.8933C23.7328 18.9976 23.5913 19.0562 23.4438 19.0562C23.2963 19.0562 23.1548 18.9976 23.0505 18.8933C22.9462 18.789 22.8876 18.6475 22.8876 18.5V14.8984L14.8984 22.8876H18.5C18.6475 22.8876 18.789 22.9462 18.8933 23.0505C18.9976 23.1548 19.0562 23.2963 19.0562 23.4438C19.0562 23.5913 18.9976 23.7328 18.8933 23.8371C18.789 23.9414 18.6475 24 18.5 24H13.5562C13.4087 24 13.2672 23.9414 13.1629 23.8371C13.0586 23.7328 13 23.5913 13 23.4438V18.5C13 18.427 13.0144 18.3546 13.0423 18.2872C13.0703 18.2197 13.1113 18.1584 13.1629 18.1067C13.2145 18.0551 13.2759 18.0141 13.3433 17.9862C13.4108 17.9582 13.4831 17.9438 13.5562 17.9438C13.6292 17.9438 13.7015 17.9582 13.769 17.9862C13.8365 18.0141 13.8978 18.0551 13.9495 18.1067C14.0011 18.1584 14.0421 18.2197 14.07 18.2872C14.098 18.3546 14.1124 18.427 14.1124 18.5V22.1016L22.1016 14.1124H18.5C18.3525 14.1124 18.211 14.0538 18.1067 13.9495C18.0024 13.8452 17.9438 13.7037 17.9438 13.5562C17.9438 13.4087 18.0024 13.2672 18.1067 13.1629C18.211 13.0586 18.3525 13 18.5 13H23.4438Z"/>
</mask>
<path fill-rule="evenodd" clip-rule="evenodd" d="M23.4438 13C23.5913 13 23.7328 13.0586 23.8371 13.1629C23.9414 13.2672 24 13.4087 24 13.5562V18.5C24 18.6475 23.9414 18.789 23.8371 18.8933C23.7328 18.9976 23.5913 19.0562 23.4438 19.0562C23.2963 19.0562 23.1548 18.9976 23.0505 18.8933C22.9462 18.789 22.8876 18.6475 22.8876 18.5V14.8984L14.8984 22.8876H18.5C18.6475 22.8876 18.789 22.9462 18.8933 23.0505C18.9976 23.1548 19.0562 23.2963 19.0562 23.4438C19.0562 23.5913 18.9976 23.7328 18.8933 23.8371C18.789 23.9414 18.6475 24 18.5 24H13.5562C13.4087 24 13.2672 23.9414 13.1629 23.8371C13.0586 23.7328 13 23.5913 13 23.4438V18.5C13 18.427 13.0144 18.3546 13.0423 18.2872C13.0703 18.2197 13.1113 18.1584 13.1629 18.1067C13.2145 18.0551 13.2759 18.0141 13.3433 17.9862C13.4108 17.9582 13.4831 17.9438 13.5562 17.9438C13.6292 17.9438 13.7015 17.9582 13.769 17.9862C13.8365 18.0141 13.8978 18.0551 13.9495 18.1067C14.0011 18.1584 14.0421 18.2197 14.07 18.2872C14.098 18.3546 14.1124 18.427 14.1124 18.5V22.1016L22.1016 14.1124H18.5C18.3525 14.1124 18.211 14.0538 18.1067 13.9495C18.0024 13.8452 17.9438 13.7037 17.9438 13.5562C17.9438 13.4087 18.0024 13.2672 18.1067 13.1629C18.211 13.0586 18.3525 13 18.5 13H23.4438Z" fill="#17D199"/>
<path d="M23.4438 13V11V13ZM24 13.5562L26 13.5562L24 13.5562ZM24 18.5L22 18.5L24 18.5ZM22.8876 14.8984H24.8876V10.07L21.4734 13.4842L22.8876 14.8984ZM14.8984 22.8876L13.4842 21.4734L10.07 24.8876H14.8984V22.8876ZM13 23.4438H15H13ZM13 18.5L15 18.5V18.5L13 18.5ZM13.5562 17.9438L13.5562 15.9438L13.5562 17.9438ZM14.1124 18.5L12.1124 18.5V18.5H14.1124ZM14.1124 22.1016H12.1124V26.93L15.5266 23.5158L14.1124 22.1016ZM22.1016 14.1124L23.5158 15.5266L26.93 12.1124H22.1016V14.1124ZM18.5 14.1124L18.5 12.1124L18.5 14.1124ZM18.5 13V15V13ZM23.4438 15C23.0609 15 22.6937 14.8479 22.4229 14.5771L25.2513 11.7487C24.7719 11.2693 24.1218 11 23.4438 11L23.4438 15ZM22.4229 14.5771C22.1521 14.3063 22 13.9391 22 13.5562L26 13.5562C26 12.8782 25.7307 12.2281 25.2513 11.7487L22.4229 14.5771ZM22 13.5562V18.5H26V13.5562H22ZM22 18.5C22 18.1171 22.1521 17.7498 22.4229 17.4791L25.2513 20.3075C25.7307 19.8281 26 19.1779 26 18.5L22 18.5ZM22.4229 17.4791C22.6937 17.2083 23.0609 17.0562 23.4438 17.0562V21.0562C24.1218 21.0562 24.7719 20.7869 25.2513 20.3075L22.4229 17.4791ZM23.4438 17.0562C23.8267 17.0562 24.194 17.2083 24.4648 17.4791L21.6363 20.3075C22.1157 20.7869 22.7659 21.0562 23.4438 21.0562V17.0562ZM24.4648 17.4791C24.7355 17.7498 24.8876 18.1171 24.8876 18.5H20.8876C20.8876 19.1779 21.1569 19.8281 21.6363 20.3075L24.4648 17.4791ZM24.8876 18.5V14.8984H20.8876V18.5H24.8876ZM21.4734 13.4842L13.4842 21.4734L16.3126 24.3019L24.3019 16.3126L21.4734 13.4842ZM14.8984 24.8876H18.5V20.8876H14.8984V24.8876ZM18.5 24.8876C18.1171 24.8876 17.7498 24.7355 17.4791 24.4648L20.3075 21.6363C19.8281 21.1569 19.1779 20.8876 18.5 20.8876V24.8876ZM17.4791 24.4648C17.2083 24.194 17.0562 23.8267 17.0562 23.4438H21.0562C21.0562 22.7659 20.7869 22.1157 20.3075 21.6363L17.4791 24.4648ZM17.0562 23.4438C17.0562 23.0609 17.2083 22.6937 17.4791 22.4229L20.3075 25.2513C20.7869 24.7719 21.0562 24.1218 21.0562 23.4438H17.0562ZM17.4791 22.4229C17.7498 22.1521 18.1171 22 18.5 22V26C19.1779 26 19.8281 25.7307 20.3075 25.2513L17.4791 22.4229ZM18.5 22H13.5562V26H18.5V22ZM13.5562 22C13.9391 22 14.3063 22.1521 14.5771 22.4229L11.7487 25.2513C12.2281 25.7307 12.8782 26 13.5562 26V22ZM14.5771 22.4229C14.8479 22.6937 15 23.0609 15 23.4438L11 23.4438C11 24.1218 11.2693 24.7719 11.7487 25.2513L14.5771 22.4229ZM15 23.4438V18.5H11V23.4438H15ZM15 18.5C15 18.6896 14.9627 18.8774 14.8901 19.0525L11.1946 17.5218C11.0661 17.8319 11 18.1643 11 18.5L15 18.5ZM14.8901 19.0525C14.8175 19.2277 14.7112 19.3869 14.5771 19.5209L11.7487 16.6925C11.5113 16.9299 11.323 17.2117 11.1946 17.5218L14.8901 19.0525ZM14.5771 19.5209C14.443 19.655 14.2839 19.7614 14.1087 19.8339L12.578 16.1384C12.2678 16.2669 11.9861 16.4551 11.7487 16.6925L14.5771 19.5209ZM14.1087 19.8339C13.9335 19.9065 13.7458 19.9438 13.5562 19.9438L13.5562 15.9438C13.2205 15.9438 12.8881 16.0099 12.578 16.1384L14.1087 19.8339ZM13.5562 19.9438C13.3666 19.9438 13.1788 19.9065 13.0037 19.8339L14.5344 16.1384C14.2243 16.0099 13.8919 15.9438 13.5562 15.9438L13.5562 19.9438ZM13.0037 19.8339C12.8285 19.7614 12.6693 19.655 12.5352 19.5209L15.3637 16.6925C15.1263 16.4551 14.8445 16.2669 14.5344 16.1384L13.0037 19.8339ZM12.5352 19.5209C12.4012 19.3869 12.2948 19.2277 12.2223 19.0525L15.9178 17.5218C15.7893 17.2117 15.601 16.9299 15.3637 16.6925L12.5352 19.5209ZM12.2223 19.0525C12.1497 18.8774 12.1124 18.6896 12.1124 18.5L16.1124 18.5C16.1124 18.1643 16.0462 17.8319 15.9178 17.5218L12.2223 19.0525ZM12.1124 18.5V22.1016H16.1124V18.5H12.1124ZM15.5266 23.5158L23.5158 15.5266L20.6874 12.6981L12.6981 20.6874L15.5266 23.5158ZM22.1016 12.1124H18.5V16.1124H22.1016V12.1124ZM18.5 12.1124C18.8829 12.1124 19.2502 12.2645 19.5209 12.5352L16.6925 15.3637C17.1719 15.843 17.8221 16.1124 18.5 16.1124L18.5 12.1124ZM19.5209 12.5352C19.7917 12.806 19.9438 13.1733 19.9438 13.5562H15.9438C15.9438 14.2341 16.2131 14.8843 16.6925 15.3637L19.5209 12.5352ZM19.9438 13.5562C19.9438 13.9391 19.7917 14.3063 19.5209 14.5771L16.6925 11.7487C16.2131 12.2281 15.9438 12.8782 15.9438 13.5562H19.9438ZM19.5209 14.5771C19.2502 14.8479 18.8829 15 18.5 15L18.5 11C17.8221 11 17.1719 11.2693 16.6925 11.7487L19.5209 14.5771ZM18.5 15H23.4438V11H18.5V15Z" fill="#17D199" mask="url(#path-2-inside-1_10541_2704)"/>
</svg>
