<svg width="36" height="36" viewBox="0 0 36 36" fill="none" xmlns="http://www.w3.org/2000/svg">
<circle cx="18" cy="18" r="18" fill="#FFE7CC"/>
<g clip-path="url(#clip0_10638_2531)">
<path fill-rule="evenodd" clip-rule="evenodd" d="M16.8749 10.5C15.8584 10.5001 14.8566 10.7433 13.9531 11.2093C13.0497 11.6753 12.2708 12.3506 11.6814 13.1788C11.092 14.0071 10.7092 14.9643 10.565 15.9705C10.4208 16.9768 10.5193 18.003 10.8523 18.9634C11.1853 19.9239 11.7432 20.7908 12.4794 21.4918C13.2156 22.1928 14.1087 22.7076 15.0843 22.9932C16.0599 23.2788 17.0897 23.327 18.0877 23.1337C19.0857 22.9404 20.023 22.5112 20.8214 21.882L23.5604 24.621C23.7019 24.7576 23.8913 24.8332 24.088 24.8315C24.2846 24.8298 24.4728 24.7509 24.6118 24.6119C24.7509 24.4728 24.8297 24.2847 24.8315 24.0881C24.8332 23.8914 24.7576 23.702 24.6209 23.5605L21.8819 20.8215C22.6229 19.8815 23.0843 18.7518 23.2133 17.5618C23.3422 16.3718 23.1335 15.1695 22.6111 14.0926C22.0887 13.0156 21.2736 12.1075 20.2592 11.4722C19.2447 10.8368 18.0719 10.4999 16.8749 10.5ZM11.9999 16.875C11.9999 15.5821 12.5136 14.3421 13.4278 13.4279C14.342 12.5136 15.582 12 16.8749 12C18.1679 12 19.4079 12.5136 20.3221 13.4279C21.2363 14.3421 21.7499 15.5821 21.7499 16.875C21.7499 18.1679 21.2363 19.4079 20.3221 20.3221C19.4079 21.2364 18.1679 21.75 16.8749 21.75C15.582 21.75 14.342 21.2364 13.4278 20.3221C12.5136 19.4079 11.9999 18.1679 11.9999 16.875Z" fill="#FF8540"/>
</g>
<defs>
<clipPath id="clip0_10638_2531">
<rect width="18" height="18" fill="white" transform="translate(9 9)"/>
</clipPath>
</defs>
</svg>
