<svg width="198" height="75" viewBox="0 0 198 75" fill="none" xmlns="http://www.w3.org/2000/svg">
<path d="M126.85 40.966C126.821 40.8196 126.821 40.6941 127.605 40.4639C128.382 40.2408 130.261 39.634 131.408 39.0413C132.555 38.4415 132.74 38.3578 133.013 38.5252C133.28 38.6926 133.206 39.0971 133.206 39.39V42.312C133.628 41.6634 135.004 39.5085 136.091 38.8739C136.95 38.3718 137.253 38.3299 137.786 38.323C138.422 38.309 139.931 38.6856 139.998 40.185C140.05 41.3566 139.132 41.8308 138.548 41.7541C138.082 41.6913 137.741 41.2868 137.468 40.8754C137.186 40.4639 136.742 40.2129 136.299 40.3593C135.855 40.5058 133.361 42.0261 133.221 44.1949C133.117 45.7919 133.221 50.7712 133.221 50.7712C133.221 51.5244 133.524 51.8173 133.886 52.0195C134.242 52.2218 135.551 52.2357 135.921 52.2846C136.291 52.3334 136.276 52.4171 136.276 52.5217C136.276 52.6263 136.276 52.6821 135.943 52.6821H127.168C126.887 52.6821 126.776 52.6332 126.776 52.4728C126.776 52.2567 127.146 52.2985 127.427 52.2567C127.708 52.2218 129.188 52.3334 129.617 51.636C129.928 51.1757 129.891 50.4365 129.891 50.4365L129.847 41.6913C129.847 40.987 129.625 40.8824 129.418 40.7708C129.21 40.6592 128.863 40.5964 128.138 40.8335C127.45 41.0358 126.976 41.238 126.85 40.966Z" fill="#A0AEC0"/>
<path d="M96.1832 40.9684C96.0648 40.7522 96.2868 40.6127 96.9379 40.4523C97.6629 40.271 99.2537 39.8177 100.511 39.1412C101.769 38.4718 101.991 38.402 102.258 38.4787C102.524 38.5624 102.502 39.0087 102.502 39.3644V50.6829C102.502 51.3175 102.591 51.5825 102.894 51.8475C103.197 52.1125 103.967 52.266 104.958 52.266C105.409 52.266 105.543 52.3148 105.543 52.4961C105.543 52.6774 105.402 52.6774 105.225 52.6774H96.5161C96.2498 52.6774 96.1832 52.5658 96.1832 52.4612C96.1832 52.3287 96.3016 52.245 96.7085 52.245C97.0488 52.245 98.6248 52.3566 98.9799 51.5825C99.1205 51.2896 99.1871 50.8782 99.1871 50.4946V41.5193C99.1871 40.8359 98.6248 40.536 97.9811 40.6825C97.219 40.8498 96.3386 41.2543 96.1832 40.9684Z" fill="#A0AEC0"/>
<path d="M100.617 33.151C101.801 33.151 102.755 32.2444 102.755 31.1355C102.755 30.0197 101.793 29.1201 100.617 29.1201C99.4404 29.1201 98.4785 30.0197 98.4785 31.1355C98.4859 32.2444 99.4404 33.151 100.617 33.151Z" fill="#A0AEC0"/>
<path d="M111.079 45.9745C111.508 49.6427 113.824 52.502 116.702 52.0208C119.58 51.5396 121.023 48.9523 120.675 44.8029C120.32 40.5837 118.108 38.4776 115.126 38.7287C112.048 38.9937 110.642 42.2993 111.079 45.9745ZM113.927 38.0801C117.634 37.4246 122.909 38.1987 124.108 43.6661C125.307 49.1336 121.311 52.0487 117.849 52.76C114.46 53.4504 108.711 52.9623 107.668 47.0763C106.736 41.7972 110.798 38.6311 113.927 38.0801Z" fill="#A0AEC0"/>
<path d="M70.0293 51.7922H72.1823C80.1804 51.7922 82.3261 51.0948 85.145 47.566C87.9639 44.0373 88.2969 38.9813 88.2969 37.2657C88.2969 35.5501 87.816 31.2612 84.997 27.6279C82.1781 23.9945 77.4799 23.053 73.3661 23.053H70.0145C69.2228 23.053 69.1784 23.3878 69.1784 23.9108V51.1227C69.171 51.7224 69.393 51.7922 70.0293 51.7922ZM57 52.4268C57 52.1548 57.3773 52.106 57.7325 52.092C61.8018 51.9805 62.5639 51.848 63.03 51.3947C63.2816 51.1436 63.6589 50.9414 63.6589 49.163V24.6919C63.6589 22.4951 60.8252 22.8438 58.8275 22.6486C58.1246 22.5858 58.0654 22.4951 58.0654 22.2999C58.0654 22.1116 58.1986 22.0139 58.5685 22H74.9791C93.0173 22 93.9422 34.4274 93.9422 37.7469C93.9422 44.8672 88.948 52.7057 78.5009 52.7057H57.5253C57.2664 52.7057 57 52.6778 57 52.4268Z" fill="#A0AEC0"/>
</svg>
